<svg width="16" height="16" viewBox="0 0 16 16" fill="none" xmlns="http://www.w3.org/2000/svg">
<path d="M8 16C12.4183 16 16 12.4183 16 8C16 3.58172 12.4183 0 8 0C3.58172 0 0 3.58172 0 8C0 12.4183 3.58172 16 8 16Z" fill="#6DA544"/>
<path d="M7.99931 3.13062L14.608 8.00018L7.99931 12.8697L1.39062 8.00018L7.99931 3.13062Z" fill="#FFDA44"/>
<path d="M8.00037 10.7825C9.53715 10.7825 10.783 9.53666 10.783 7.99988C10.783 6.46309 9.53715 5.21729 8.00037 5.21729C6.46358 5.21729 5.21777 6.46309 5.21777 7.99988C5.21777 9.53666 6.46358 10.7825 8.00037 10.7825Z" fill="#F0F0F0"/>
<path d="M6.60818 7.82544C6.1243 7.82544 5.65733 7.89903 5.21777 8.0356C5.23724 9.5556 6.47486 10.782 7.99948 10.782C8.94223 10.782 9.77485 10.3127 10.2782 9.59547C9.41704 8.51744 8.09202 7.82544 6.60818 7.82544Z" fill="#0052B4"/>
<path d="M10.7304 8.533C10.7639 8.36038 10.782 8.18229 10.782 7.99988C10.782 6.46307 9.53622 5.21729 7.99944 5.21729C6.85275 5.21729 5.86838 5.91107 5.44238 6.90163C5.81894 6.8236 6.20882 6.7825 6.60816 6.7825C8.22431 6.78247 9.68637 7.45429 10.7304 8.533Z" fill="#0052B4"/>
</svg>
