<svg width="16" height="16" viewBox="0 0 16 16" fill="none" xmlns="http://www.w3.org/2000/svg">
<path d="M8 16C12.4183 16 16 12.4183 16 8C16 3.58172 12.4183 0 8 0C3.58172 0 0 3.58172 0 8C0 12.4183 3.58172 16 8 16Z" fill="#D80027"/>
<path d="M4.37812 4.86816L5.06875 6.99316H7.30312L5.49687 8.30879L6.1875 10.4338L4.37812 9.12129L2.56875 10.4338L3.2625 8.30879L1.45312 6.99316H3.6875L4.37812 4.86816Z" fill="#FFDA44"/>
<path d="M9.48397 12.3903L8.95585 11.7403L8.17461 12.0435L8.62773 11.3403L8.09961 10.6872L8.90898 10.9028L9.36523 10.1997L9.40898 11.0372L10.2215 11.2528L9.4371 11.5528L9.48397 12.3903Z" fill="#FFDA44"/>
<path d="M10.534 10.4841L10.784 9.68408L10.0996 9.19971L10.9371 9.18721L11.184 8.38721L11.4559 9.18096L12.2934 9.17158L11.6215 9.67158L11.8902 10.4653L11.2059 9.98096L10.534 10.4841Z" fill="#FFDA44"/>
<path d="M11.9504 5.87075L11.5816 6.62388L12.1816 7.20825L11.3535 7.0895L10.9848 7.8395L10.841 7.0145L10.0098 6.89575L10.7535 6.50513L10.6098 5.677L11.2098 6.26138L11.9504 5.87075Z" fill="#FFDA44"/>
<path d="M9.50547 3.59033L9.44297 4.42471L10.2211 4.74033L9.40547 4.94033L9.34609 5.77783L8.90547 5.06533L8.08984 5.26533L8.63047 4.62471L8.18672 3.91533L8.96484 4.23096L9.50547 3.59033Z" fill="#FFDA44"/>
</svg>
