<svg width="16" height="17" viewBox="0 0 16 17" fill="none" xmlns="http://www.w3.org/2000/svg">
<g clip-path="url(#clip0_13209_103574)">
<path d="M8 16.0117C12.4183 16.0117 16 12.43 16 8.01172C16 3.59344 12.4183 0.0117188 8 0.0117188C3.58172 0.0117188 0 3.59344 0 8.01172C0 12.43 3.58172 16.0117 8 16.0117Z" fill="#F0F0F0"/>
<path d="M6.26077 6.96825H15.9321C15.4208 3.04303 12.0645 0.0117188 7.99987 0.0117188C7.40252 0.0117188 6.82074 0.07775 6.26074 0.201875V6.96825H6.26077Z" fill="#D80027"/>
<path d="M4.17357 6.96816V0.984375C1.97691 2.18294 0.404352 4.38141 0.0673828 6.96819H4.17357V6.96816Z" fill="#D80027"/>
<path d="M4.17354 9.05566H0.0673828C0.404352 11.6424 1.97691 13.8409 4.17357 15.0394L4.17354 9.05566Z" fill="#D80027"/>
<path d="M6.26074 9.0557V15.822C6.82074 15.9462 7.40252 16.0122 7.99987 16.0122C12.0645 16.0122 15.4208 12.9809 15.9321 9.05566H6.26074V9.0557Z" fill="#D80027"/>
</g>
<defs>
<clipPath id="clip0_13209_103574">
<rect width="16" height="16" fill="white" transform="translate(0 0.0117188)"/>
</clipPath>
</defs>
</svg>
