<svg width="16" height="16" viewBox="0 0 16 16" fill="none" xmlns="http://www.w3.org/2000/svg">
<g clip-path="url(#clip0_13209_104829)">
<path d="M8 16C12.4183 16 16 12.4183 16 8C16 3.58172 12.4183 0 8 0C3.58172 0 0 3.58172 0 8C0 12.4183 3.58172 16 8 16Z" fill="#F0F0F0"/>
<path d="M15.9996 7.99923C15.9996 4.55951 13.8286 1.62717 10.7822 0.496826V15.5017C13.8286 14.3713 15.9996 11.439 15.9996 7.99923Z" fill="#D80027"/>
<path d="M0 7.99923C0 11.439 2.17103 14.3713 5.21741 15.5016V0.496826C2.17103 1.62717 0 4.55951 0 7.99923Z" fill="#0052B4"/>
</g>
<defs>
<clipPath id="clip0_13209_104829">
<rect width="16" height="16" fill="white"/>
</clipPath>
</defs>
</svg>
