<svg width="16" height="16" viewBox="0 0 14 14" fill="none" xmlns="http://www.w3.org/2000/svg">
<path d="M7 14C6.03167 14 5.12167 13.8162 4.27 13.4487C3.41833 13.0812 2.6775 12.5825 2.0475 11.9525C1.4175 11.3225 0.91875 10.5817 0.55125 9.73C0.18375 8.87833 0 7.96833 0 7C0 6.03167 0.18375 5.12167 0.55125 4.27C0.91875 3.41833 1.4175 2.6775 2.0475 2.0475C2.6775 1.4175 3.41833 0.91875 4.27 0.55125C5.12167 0.18375 6.03167 0 7 0C7.96833 0 8.87833 0.18375 9.73 0.55125C10.5817 0.91875 11.3225 1.4175 11.9525 2.0475C12.5825 2.6775 13.0812 3.41833 13.4487 4.27C13.8162 5.12167 14 6.03167 14 7C14 7.96833 13.8162 8.87833 13.4487 9.73C13.0812 10.5817 12.5825 11.3225 11.9525 11.9525C11.3225 12.5825 10.5817 13.0812 9.73 13.4487C8.87833 13.8162 7.96833 14 7 14ZM6.3 12.565V11.2C5.915 11.2 5.58542 11.0629 5.31125 10.7887C5.03708 10.5146 4.9 10.185 4.9 9.8V9.1L1.54 5.74C1.505 5.95 1.47292 6.16 1.44375 6.37C1.41458 6.58 1.4 6.79 1.4 7C1.4 8.41167 1.86375 9.64833 2.79125 10.71C3.71875 11.7717 4.88833 12.39 6.3 12.565ZM11.13 10.78C11.3633 10.5233 11.5733 10.2463 11.76 9.94875C11.9467 9.65125 12.1012 9.34208 12.2237 9.02125C12.3462 8.70042 12.4396 8.37083 12.5037 8.0325C12.5679 7.69417 12.6 7.35 12.6 7C12.6 5.85667 12.2821 4.8125 11.6462 3.8675C11.0104 2.9225 10.1617 2.24 9.1 1.82V2.1C9.1 2.485 8.96292 2.81458 8.68875 3.08875C8.41458 3.36292 8.085 3.5 7.7 3.5H6.3V4.9C6.3 5.09833 6.23292 5.26458 6.09875 5.39875C5.96458 5.53292 5.79833 5.6 5.6 5.6H4.2V7H8.4C8.59833 7 8.76458 7.06708 8.89875 7.20125C9.03292 7.33542 9.1 7.50167 9.1 7.7V9.8H9.8C10.1033 9.8 10.3775 9.89042 10.6225 10.0712C10.8675 10.2521 11.0367 10.4883 11.13 10.78Z" fill="#1B1B1B"/>
</svg>
