<svg width="16" height="16" viewBox="0 0 16 16" fill="none" xmlns="http://www.w3.org/2000/svg">
<path d="M8 16C12.4183 16 16 12.4183 16 8C16 3.58172 12.4183 0 8 0C3.58172 0 0 3.58172 0 8C0 12.4183 3.58172 16 8 16Z" fill="#F0F0F0"/>
<path d="M10.783 7.99988C10.783 8.69554 9.53715 10.4347 8.00037 10.4347C6.46359 10.4347 5.21777 8.69554 5.21777 7.99988C5.21777 6.46307 6.46359 5.21729 8.00037 5.21729C9.53715 5.21729 10.783 6.46307 10.783 7.99988Z" fill="#D80027"/>
<path d="M10.783 8C10.783 9.53681 9.53715 10.7826 8.00037 10.7826C6.46359 10.7826 5.21777 9.53681 5.21777 8" fill="#0052B4"/>
<path d="M10.9492 10.4604L11.687 9.72272L12.1788 10.2145L11.441 10.9523L10.9492 10.4604Z" fill="black"/>
<path d="M9.71875 11.6897L10.4565 10.952L10.9483 11.4438L10.2106 12.1815L9.71875 11.6897Z" fill="black"/>
<path d="M12.4248 11.936L13.1625 11.1983L13.6544 11.6901L12.9166 12.4279L12.4248 11.936Z" fill="black"/>
<path d="M11.1953 13.1655L11.933 12.4278L12.4249 12.9196L11.6871 13.6574L11.1953 13.1655Z" fill="black"/>
<path d="M11.6865 11.1973L12.4243 10.4595L12.9161 10.9514L12.1784 11.6891L11.6865 11.1973Z" fill="black"/>
<path d="M10.457 12.4277L11.1948 11.69L11.6866 12.1818L10.9489 12.9196L10.457 12.4277Z" fill="black"/>
<path d="M12.4277 5.54102L10.4604 3.57372L10.9523 3.08189L12.9196 5.04919L12.4277 5.54102Z" fill="black"/>
<path d="M10.4609 5.0498L9.7232 4.31207L10.215 3.82027L10.9527 4.558L10.4609 5.0498Z" fill="black"/>
<path d="M11.6904 6.27979L10.9527 5.54205L11.4445 5.05025L12.1822 5.78798L11.6904 6.27979Z" fill="black"/>
<path d="M11.9355 3.5752L11.1978 2.83746L11.6896 2.34563L12.4274 3.08336L11.9355 3.5752Z" fill="black"/>
<path d="M13.166 4.80444L12.4283 4.06671L12.9201 3.57488L13.6578 4.31261L13.166 4.80444Z" fill="black"/>
<path d="M2.83594 11.1963L4.80323 13.1636L4.3114 13.6554L2.34411 11.6881L2.83594 11.1963Z" fill="black"/>
<path d="M4.80273 11.6873L5.54046 12.425L5.04866 12.9168L4.31093 12.1791L4.80273 11.6873Z" fill="black"/>
<path d="M3.57324 10.4575L4.31098 11.1953L3.81915 11.6871L3.08141 10.9494L3.57324 10.4575Z" fill="black"/>
<path d="M4.31152 9.7207L6.27882 11.688L5.78699 12.1798L3.81969 10.2125L4.31152 9.7207Z" fill="black"/>
<path d="M4.80273 2.83594L2.83544 4.80324L2.34361 4.31141L4.31091 2.34411L4.80273 2.83594Z" fill="black"/>
<path d="M5.54102 3.573L3.57372 5.5403L3.0819 5.04847L5.04919 3.08117L5.54102 3.573Z" fill="black"/>
<path d="M6.2793 4.31006L4.312 6.27735L3.8202 5.78555L5.78749 3.81825L6.2793 4.31006Z" fill="black"/>
</svg>
