<svg width="16" height="17" viewBox="0 0 16 17" fill="none" xmlns="http://www.w3.org/2000/svg">
<g clip-path="url(#clip0_13209_104490)">
<path d="M16 8.41797C16 12.8362 12.4183 16.418 8 16.418C3.58175 16.418 0 12.8362 0 8.41797C2.74781 5.67016 5.07825 3.33972 8 0.417969C12.4183 0.417969 16 3.99972 16 8.41797Z" fill="#D80027"/>
<path d="M8 8.41797C8 3.99972 8 3.47884 8 0.417969C3.58175 0.417969 0 3.99972 0 8.41797H8Z" fill="#0052B4"/>
<path d="M6.95602 5.09976L5.97898 5.55938L6.49923 6.5056L5.43833 6.3026L5.30386 7.37438L4.56492 6.58613L3.82592 7.37438L3.69152 6.3026L2.63058 6.50554L3.15083 5.55932L2.17383 5.09976L3.15086 4.64023L2.63058 3.69398L3.69148 3.89695L3.82595 2.8252L4.56492 3.61345L5.30389 2.8252L5.43833 3.89695L6.49927 3.69398L5.97898 4.64026L6.95602 5.09976Z" fill="#F0F0F0"/>
<path d="M4.56533 6.58963C5.38777 6.58963 6.05449 5.92292 6.05449 5.10048C6.05449 4.27804 5.38777 3.61133 4.56533 3.61133C3.74289 3.61133 3.07617 4.27804 3.07617 5.10048C3.07617 5.92292 3.74289 6.58963 4.56533 6.58963Z" fill="#0052B4"/>
<path d="M4.56495 5.89266C4.12742 5.89266 3.77148 5.5367 3.77148 5.09916C3.77148 4.66163 4.12745 4.30566 4.56495 4.30566C5.00248 4.30566 5.35845 4.66163 5.35845 5.09916C5.35842 5.5367 5.00242 5.89266 4.56495 5.89266Z" fill="#F0F0F0"/>
</g>
<defs>
<clipPath id="clip0_13209_104490">
<rect width="16" height="16" fill="white" transform="translate(0 0.417969)"/>
</clipPath>
</defs>
</svg>
